# xmcd CD database file
#
# Track frame offsets:
#	150
#	15717
#	32449
#	46961
#	60988
#	75260
#	89942
#	100899
#	114621
#	131128
#	147600
#	163117
#	177249
#	187251
#	199408
#	213075
#	227107
#	240579
#
# Disc length: 3383 seconds
#
# Revision: 0
# Processed by: cddbd v1.4PL0 Copyright (c) Steve Scherf et al.
# Submitted via: CDex 1.40Beta9
#
DISCID=000d3512
DTITLE=MICHAEL PINCOTT - My Boondooma Home
DYEAR=2001
DGENRE=Country
TTITLE0=MICHAEL PINCOTT_My Boondooma Home(3.27)~
TTITLE1=MICHAEL PINCOTT_The Love That I Can See(3.43)~
TTITLE2=JACK PINCOTT_The Blue Velvet Band(3.13)~
TTITLE3=PAT PINCOTT_Don't Say Goodbye(3.07)~
TTITLE4=MICHAEL PINCOTT_Stock Camps Of The West(3.10)~
TTITLE5=JACK PINCOTT_Up Where The Brighter Stars Shine(3.15)~
TTITLE6=MICHAEL PINCOTT_The Lagoon(2.26)~
TTITLE7=JACK PINCOTT_The Flying Doctor(3.02)~
TTITLE8=MICHAEL PINCOTT_Back To Those Rollin' Plains(3.40)~
TTITLE9=PAT PINCOTT_She Will Always Bare The Scars(3.39)~
TTITLE10=MICHAEL PINCOTT_The Monto Yodella(3.26)~
TTITLE11=JACK PINCOTT_The Golden Trail(3.08)~
TTITLE12=PAT PINCOTT_Special Lady(2.13)~
TTITLE13=MICHAEL PINCOTT_Dry Weather(2.42)~
TTITLE14=JACK PINCOTT_The Bushmans Song(3.020~
TTITLE15=PAT PNCOTT_Old Homes By The Road(3.07)~
TTITLE16=JACK PINCOTT_Wondaer Valley(2.59)~
TTITLE17=MICHAEL PINCOTT_Lovin' Flames(2.55)~
EXTD=YEAR: 2001 ID3G: 2
EXTT0=
EXTT1=
EXTT2=
EXTT3=
EXTT4=
EXTT5=
EXTT6=
EXTT7=
EXTT8=
EXTT9=
EXTT10=
EXTT11=
EXTT12=
EXTT13=
EXTT14=
EXTT15=
EXTT16=
EXTT17=
PLAYORDER=
